<?xml version="1.0" encoding="iso-8859-1"?>
<!-- Generator: Adobe Illustrator 19.0.1, SVG Export Plug-In . SVG Version: 6.00 Build 0)  -->
<!DOCTYPE svg PUBLIC "-//W3C//DTD SVG 1.1//EN" "http://www.w3.org/Graphics/SVG/1.1/DTD/svg11.dtd">
<svg version="1.1" id="fl_x5F_cc_x5F_app_x5F_RGB.svg"
	 xmlns="http://www.w3.org/2000/svg" xmlns:xlink="http://www.w3.org/1999/xlink" x="0px" y="0px" viewBox="0 0 240 234"
	 style="enable-background:new 0 0 240 234;" xml:space="preserve">
<g>
	<rect x="10" y="10" style="fill-rule:evenodd;clip-rule:evenodd;fill:#260600;" width="220.001" height="213.999"/>
</g>
<g>
	<path style="fill-rule:evenodd;clip-rule:evenodd;fill:#FF4A19;" d="M0,0v233.999h240.001V0H0z M10,10h220.001v213.999H10V10z"/>
</g>
<path style="fill-rule:evenodd;clip-rule:evenodd;fill:#FF4A19;" d="M87.25,161.96c0,0.99-0.33,1.289-1.155,1.289H70.405
	c-0.825,0-1.155-0.33-1.155-1.32V54.405c0-0.825,0.33-1.155,1.155-1.155h54.825c0.99,0,1.155,0.33,1.32,1.155l1.65,13.775
	c0.165,0.99-0.33,1.32-1.32,1.32H87.25v31.25h35.73c0.828,0,1.02,0.165,1.02,1.155v13.94c0,0.99-0.33,1.154-1.155,1.154H87.25
	V161.96z M146.25,54.24c0-0.66,0.164-0.99,1.154-0.99h15.525c0.99,0,1.32,0.33,1.32,0.99v89.79c0,3.959,1.484,5.443,4.455,5.443
	c1.32,0,1.895-0.164,2.719-0.33c0.66,0,0.826,0.166,0.826,0.99v11.715c0,0.99-0.166,1.32-0.826,1.65
	c-2.145,0.826-5.209,1.156-8.674,1.156c-8.746,0-16.5-3.301-16.5-19.141V54.24z"/>
</svg>
