<?xml version="1.0" encoding="utf-8"?>
<!-- Generator: Adobe Illustrator 19.1.0, SVG Export Plug-In . SVG Version: 6.00 Build 0)  -->
<!DOCTYPE svg PUBLIC "-//W3C//DTD SVG 1.1//EN" "http://www.w3.org/Graphics/SVG/1.1/DTD/svg11.dtd">
<svg version="1.1" id="Layer_1" xmlns="http://www.w3.org/2000/svg" xmlns:xlink="http://www.w3.org/1999/xlink" x="0px" y="0px"
	 viewBox="-447 249 64 64" style="enable-background:new -447 249 64 64;" xml:space="preserve">
<style type="text/css">
	.st0{fill:#FFFFFF;}
</style>
<g>
	<circle class="st0" cx="-415.7" cy="281.9" r="30.1"/>
	<path id="path2815_1_" d="M-415.1,249c-8.9,0-16.4,3.1-22.5,9.3c-3.1,3.1-5.4,6.6-7.1,10.5c-1.6,3.9-2.4,7.9-2.4,12.2
		c0,4.3,0.8,8.3,2.4,12.2c1.6,3.8,3.9,7.3,7,10.4c3.1,3,6.5,5.4,10.4,7c3.9,1.6,7.9,2.4,12.2,2.4c4.2,0,8.3-0.8,12.3-2.5
		c4-1.6,7.5-4,10.6-7.1c3-2.9,5.3-6.3,6.8-10.1c1.6-3.8,2.3-8,2.3-12.3c0-4.3-0.8-8.5-2.3-12.3c-1.6-3.9-3.8-7.3-6.9-10.3
		C-398.5,252.1-406.1,249-415.1,249z M-414.9,254.8c7.2,0,13.4,2.6,18.6,7.7c2.5,2.5,4.4,5.3,5.7,8.5c1.3,3.2,1.9,6.5,1.9,10.1
		c0,7.4-2.5,13.5-7.5,18.3c-2.6,2.5-5.5,4.4-8.7,5.8c-3.2,1.3-6.5,2-9.9,2c-3.5,0-6.8-0.7-9.9-1.9c-3.2-1.3-6-3.2-8.5-5.7
		c-2.5-2.5-4.5-5.4-5.8-8.5c-1.3-3.2-2-6.5-2-9.9c0-3.5,0.7-6.8,2-9.9c1.4-3.2,3.3-6.1,5.8-8.6
		C-428.4,257.3-422.2,254.8-414.9,254.8z"/>
	<g>
		<path d="M-425.4,267.2c2.8-2.8,6.3-4.3,10.6-4.3c5.7,0,9.9,1.9,12.6,5.7c1.5,2.1,2.3,4.3,2.4,6.4h-7.2c-0.5-1.7-1-2.9-1.8-3.7
			c-1.3-1.5-3.2-2.2-5.7-2.2c-2.6,0-4.6,1.1-6.1,3.2s-2.2,5.1-2.2,9s0.8,6.8,2.3,8.7c1.6,1.9,3.5,2.9,6,2.9c2.5,0,4.4-0.8,5.6-2.5
			c0.7-0.9,1.3-2.2,1.8-4h7.2c-0.6,3.8-2.2,6.8-4.7,9.2c-2.5,2.4-5.8,3.5-9.7,3.5c-4.9,0-8.8-1.6-11.6-4.8
			c-2.8-3.2-4.2-7.6-4.2-13.1C-430.2,275.1-428.6,270.5-425.4,267.2z"/>
	</g>
</g>
</svg>
